<svg width="83" height="60" viewBox="0 0 83 60" fill="none" xmlns="http://www.w3.org/2000/svg">
<g clip-path="url(#clip0_513_5746)">
<path d="M33.0779 56.7687C48.0062 56.7687 60.1081 44.6669 60.1081 29.7385C60.1081 14.8102 48.0062 2.70837 33.0779 2.70837C18.1495 2.70837 6.04773 14.8102 6.04773 29.7385C6.04773 44.6669 18.1495 56.7687 33.0779 56.7687Z" fill="#FBB040"/>
<path d="M61.938 23.4289C60.4793 18.3593 57.791 13.7295 54.1302 10.0846C50.4778 6.42868 45.866 3.80969 40.9237 2.45759C38.4433 1.8141 35.8873 1.43867 33.3154 1.44144C30.7449 1.45322 28.182 1.7954 25.6745 2.41465C23.1878 3.10801 20.7767 4.07983 18.4943 5.33495C16.2355 6.63371 14.1547 8.22825 12.2069 10.014C13.9088 7.9969 15.8989 6.20911 18.1036 4.69908C20.3514 3.25901 22.7847 2.09602 25.3476 1.2752C27.9223 0.490401 30.6071 0.101119 33.3023 0.00414496C36.0044 -0.0436494 38.6996 0.33732 41.3186 0.992589L43.2546 1.59314C43.8974 1.80025 44.5083 2.09463 45.1366 2.34192L46.0717 2.7305L46.968 3.20221C47.5595 3.52639 48.176 3.8083 48.7426 4.17403C49.8661 4.92212 51.007 5.64181 52.0453 6.50211C53.0885 7.35479 54.0665 8.28297 54.9815 9.26726C58.6333 13.2141 61.0971 18.2145 61.938 23.4289Z" fill="#006838"/>
<path d="M55.1797 49.6245C52.7089 52.8357 49.4111 55.4519 45.6998 57.2342C43.8337 58.1028 41.8845 58.8204 39.8654 59.2678L38.3484 59.5934C37.8386 59.6765 37.3226 59.7215 36.8093 59.7873C36.2947 59.8358 35.7835 59.9356 35.2654 59.9411L33.7138 59.9861L32.9373 60L32.1629 59.946L30.6147 59.8351C30.098 59.8081 29.591 59.6876 29.0791 59.6176C28.57 59.529 28.0546 59.4694 27.5511 59.3537C25.5478 58.8502 23.5536 58.2725 21.7049 57.354C17.9755 55.614 14.6452 53.0428 12.1335 49.8641C15.11 52.6092 18.5075 54.7904 22.1766 56.2672C25.8408 57.7412 29.7725 58.5336 33.7055 58.4692C37.6357 58.456 41.5555 57.6546 45.2149 56.1584C48.8701 54.6415 52.2448 52.4083 55.179 49.6251L55.1797 49.6245Z" fill="#006838"/>
<path fill-rule="evenodd" clip-rule="evenodd" d="M82.4141 13.8569C67.1317 9.54434 63.0615 16.6803 63.5907 25.658C81.3149 29.2114 76.1101 13.8832 82.4141 13.8569Z" fill="#7BBB54"/>
<path fill-rule="evenodd" clip-rule="evenodd" d="M64.2322 24.272C67.4413 19.9843 76.3172 14.657 78.9709 14.6805C76.1413 13.884 67.1663 18.7694 64.2322 24.272ZM65.8662 23.2815C66.9218 23.9596 69.5547 24.5006 70.9927 24.1618C69.5332 25.0859 66.8948 24.6834 65.8662 23.2815ZM69.3489 20.8079C69.9724 21.2242 71.8072 22.0797 73.3394 21.8421C71.7719 23.0356 69.944 21.9702 69.3489 20.8079ZM73.1642 18.6419C73.9781 19.2127 74.5592 19.4316 75.8483 19.1358C74.5329 20.1478 73.9566 19.8049 73.1642 18.6419ZM72.6488 14.053C71.8453 14.5143 71.4955 15.9751 71.4678 16.7115C70.717 15.9461 71.3141 14.4942 72.6488 14.053ZM69.0677 15.1966C68.0024 16.0901 68.0343 17.8599 68.0807 19.2376C67.3111 17.9049 67.4122 16.1268 69.0677 15.1966ZM65.9666 17.979C65.0468 18.9273 65.1652 20.9949 65.1375 21.7313C64.3354 21.1293 64.5522 19.0063 65.9666 17.979Z" fill="#5B8B3D"/>
<path d="M69.3427 31.766C69.2471 30.0523 68.0329 29.3783 66.9052 29.3174L66.8082 29.3132C66.394 29.2952 66.0096 29.2786 65.6085 29.2786C64.2336 29.2786 62.8108 29.2786 61.4075 29.3153C60.757 29.316 60.0443 29.3485 59.2872 29.4109C58.7566 29.4413 58.3022 29.5889 57.9164 29.8348C57.7827 29.7621 57.6518 29.6859 57.5098 29.6228C56.8323 29.2993 56.1154 29.1352 55.3777 29.1352C54.64 29.1352 53.9869 29.2834 53.3247 29.5764C52.7837 29.7967 52.3424 30.0987 51.9857 30.3432L51.8132 30.4603C51.7835 30.4797 51.7599 30.5053 51.7301 30.5247C51.5722 30.2026 51.3464 29.9304 51.0707 29.7108C51.6525 29.3063 52.0335 28.6559 52.0688 27.8808C52.0855 27.6473 52.0792 27.452 52.0744 27.3058C52.0744 27.3058 52.0709 27.1569 52.0702 27.1375C52.0591 26.7441 52.0453 26.3541 52.0314 25.9655C51.9989 25.0436 51.9677 24.1729 51.9802 23.2793C51.9802 22.7654 52.0065 22.2403 52.0335 21.6841C52.0571 21.2082 52.0806 20.7324 52.0882 20.3036C52.1506 18.7299 52.1804 17.3431 52.1804 16.0638C52.1804 15.3697 52.0931 14.7158 52.0204 14.1748C51.9386 13.4711 51.5479 12.2374 49.853 11.88C49.8052 11.8703 49.7581 11.862 49.7103 11.8551C49.6694 11.8495 49.6286 11.8447 49.6161 11.8433C49.4824 11.8052 49.3446 11.7803 49.206 11.7685L48.877 11.7408C48.3263 11.6944 47.8034 11.65 47.2665 11.6196C47.1917 11.6147 47.1211 11.6126 47.056 11.6126C46.4021 11.6126 45.7039 11.8703 45.2183 12.4154C44.7646 11.8786 44.0899 11.5551 43.3329 11.5427C42.7344 11.524 42.1186 11.5053 41.5194 11.5053C40.2311 11.5053 39.2773 12.2568 39.0203 13.3928C38.5576 11.7422 37.2339 11.5551 36.6721 11.5551C36.6112 11.5551 36.5391 11.5572 36.456 11.5607C35.976 11.5697 35.5008 11.5835 35.0249 11.5967C34.5539 11.6099 34.0822 11.6237 33.6465 11.632C33.3667 11.632 33.1298 11.675 32.9878 11.6999L32.9462 11.7075C31.8975 11.8481 31.1051 12.5782 30.8717 13.6255C30.8578 13.6872 30.8467 13.7495 30.8384 13.8119C30.8128 14.0072 30.7754 14.2122 30.7366 14.429L30.7137 14.5558L30.56 15.281C29.5965 13.5951 27.9687 12.3462 25.9904 11.8842C24.9029 11.6403 23.8888 11.5995 22.908 11.5607C22.8796 11.5593 22.8512 11.5593 22.8228 11.5593C22.5714 11.5593 22.2333 11.5593 21.869 11.6244C20.9678 11.763 20.3084 12.207 19.9461 12.8754C19.4315 12.4923 18.8642 12.2056 18.2456 12.0269C18.1874 12.0102 18.1279 11.9957 18.069 11.9839C17.9679 11.9638 17.8764 11.9306 17.7843 11.9008C17.6818 11.8682 17.5786 11.8364 17.4608 11.8024C16.6781 11.5842 15.8511 11.4824 14.8571 11.4824C14.7269 11.4824 14.5952 11.4838 14.5135 11.4866C14.136 11.4866 13.8188 11.5489 13.6089 11.5905C13.5646 11.5988 13.5202 11.6085 13.4752 11.6154C13.1912 11.6528 12.928 11.7394 12.6869 11.8599C12.2658 11.5766 11.7684 11.4249 11.269 11.4249C11.1624 11.4249 11.046 11.4312 10.9088 11.4464C10.6013 11.4824 10.2771 11.5157 9.9869 11.5157C9.86291 11.5157 9.75208 11.5094 9.65649 11.497C9.51726 11.4727 9.37596 11.4603 9.23257 11.4603C8.95204 11.4603 8.72277 11.506 8.56761 11.5441C7.97468 11.6805 7.52929 11.9361 7.2072 12.2568C6.83801 11.8391 6.31919 11.5572 5.70618 11.4727C5.57596 11.4519 5.44366 11.4416 5.30997 11.4416C5.23308 11.4416 5.15689 11.445 5.08208 11.4512L3.03038 11.5046C2.95904 11.506 2.88839 11.5115 2.81843 11.5205C1.48018 11.6881 0.634429 12.5893 0.555465 13.9303C0.552694 13.9726 0.551309 14.0148 0.551309 14.0571V15.1113C0.561006 15.6911 0.565162 16.266 0.569318 16.8437C0.574167 17.4276 0.579015 18.0136 0.587327 18.6003C0.607415 20.3521 0.727247 22.002 0.956522 23.6665C1.20034 25.3033 1.8279 26.8286 2.82327 28.2015C3.07264 28.5603 3.36217 28.8713 3.6815 29.1421C3.29845 29.1518 2.91817 29.1657 2.52612 29.1878C2.50257 29.1892 2.47971 29.1913 2.45616 29.1927C1.45317 29.2827 0.865089 29.7731 0.54923 30.1686C0.135705 30.6854 -0.0533947 31.3407 0.0117165 32.0236C0.0525842 32.7253 0.0747497 33.4277 0.0969153 34.1217C0.113539 34.6267 0.130164 35.1282 0.151636 35.5957C0.166875 36.0709 0.194582 36.5461 0.222289 37.0192C0.260386 37.6724 0.296405 38.2909 0.296405 38.9019C0.310951 40.2782 0.405847 41.6248 0.49728 42.927C0.523602 43.3003 0.57763 44.0921 0.578323 44.1031C0.610186 44.5063 0.638585 44.8547 0.62681 45.1719C0.58802 45.9747 0.81591 46.6411 1.30424 47.153C1.573 47.4342 2.16801 47.9066 3.13567 47.9066C3.23334 47.9066 3.34001 47.9025 3.44599 47.8921C3.52426 47.8844 3.60877 47.8754 3.67873 47.8741C3.74245 47.8796 3.80548 47.8824 3.86921 47.8824C4.13589 47.8824 4.38664 47.8983 4.63392 47.9122C4.76899 47.9198 4.90268 47.9281 5.03567 47.9336C5.10702 47.9385 5.17282 47.9406 5.23308 47.9406C5.91606 47.9406 6.51106 47.6808 6.93567 47.2416C7.3776 47.7189 8.01001 47.9918 8.75186 47.9918H10.9933C11.0356 47.9918 11.0779 47.9904 11.1201 47.9877C11.551 47.962 11.9014 47.8567 12.1917 47.7168C12.4396 47.7944 12.723 47.8457 13.0541 47.8457H14.7123C15.8324 47.8457 16.7314 47.2008 17.0605 46.2206C17.3909 47.367 18.3336 48.0638 19.5956 48.0638C19.8596 48.0638 20.0958 48.0389 20.2856 48.0181C20.2856 48.0181 20.5418 47.9925 20.5876 47.9856C20.7053 47.9683 20.8251 47.9558 20.9457 47.9433C21.2006 47.9163 21.4887 47.8851 21.7887 47.8249C22.0117 47.7819 22.216 47.7182 22.4086 47.6413C22.7432 47.82 23.1283 47.9378 23.5667 47.9669C23.9574 48.0022 24.382 48.023 24.8378 48.0431C24.9147 48.0472 24.9853 48.0486 25.0511 48.0486C25.6766 48.0486 26.3707 47.8443 26.8763 47.3414C27.3335 47.8581 27.9735 48.1553 28.6683 48.1553C28.8982 48.1553 29.1303 48.1227 29.3589 48.0576C29.9906 47.8858 30.4955 47.6095 30.9021 47.3871C31.0178 47.3241 31.1342 47.259 31.2575 47.198C31.865 46.8932 32.3166 46.3495 32.4981 45.7074C32.6795 45.0611 32.5749 44.3553 32.2106 43.7714C32.1864 43.7319 32.176 43.7159 32.149 43.6785C32.1282 43.6446 32.0146 43.4382 32.0146 43.4382C31.9876 43.3911 31.9585 43.3454 31.928 43.3003C31.5643 42.7656 32.8112 43.7949 33.0196 44.4723C33.1436 44.8997 33.2898 45.2883 33.4318 45.6637C33.499 45.8424 33.5676 46.0232 33.632 46.2075C33.9693 47.3705 34.8261 48.0098 36.0522 48.0098H37.38C37.4479 48.0133 37.5089 48.0147 37.5629 48.0147C38.0152 48.0147 39.5238 47.8685 39.9394 45.9955C39.9443 45.972 39.9491 45.9491 39.954 45.9256C40.0877 45.21 40.2304 44.4938 40.3703 43.7776C40.4042 44.3061 40.4396 44.8325 40.4763 45.3486L40.4804 45.4116C40.5241 46.6965 41.3996 47.712 42.688 47.9551C42.706 47.9586 42.7233 47.9613 42.742 47.9648C42.9041 47.9911 43.1008 48.0174 43.3335 48.0174C43.4035 48.0174 43.4728 48.0147 43.542 48.0098C44.8637 48.0091 46.186 47.9918 47.5291 47.9731C48.3152 47.9551 49.1201 47.9184 49.9278 47.8817C50.7133 47.8664 51.3498 47.5568 51.7751 47.0477C52.3251 47.3926 52.9049 47.6192 53.4466 47.7951C53.475 47.8048 53.5034 47.8131 53.5318 47.8207C54.0367 47.962 54.5389 48.0334 55.0245 48.0334C55.8467 48.0334 56.6356 47.8325 57.3699 47.4356C58.244 46.9909 58.981 46.3384 59.5393 45.528C59.7443 45.2426 59.9168 44.9434 60.0574 44.633C60.0609 44.8104 60.0644 44.9932 60.0685 45.165C60.0685 46.7194 61.0341 47.7639 62.5898 47.8928C62.6162 47.8955 62.7208 47.9004 62.7208 47.9004C63.1364 47.9198 63.5346 47.9371 63.9329 47.9371C64.165 47.9371 64.4123 47.9205 64.688 47.8865C66.1245 47.73 67.0507 46.7083 67.0507 45.2745V44.7646C67.0507 44.7307 67.043 44.5513 67.043 44.5513C66.9904 43.4451 66.9405 42.3999 66.9232 41.3477C66.9135 40.6557 66.9142 39.9547 66.9142 39.253C66.9142 38.5514 66.9142 37.813 66.9045 37.0878C66.9003 36.8716 66.8941 36.6562 66.8865 36.4394C66.9066 36.4394 66.926 36.438 66.9461 36.4366C68.3245 36.3508 69.2014 35.4877 69.3025 34.1245C69.3295 33.8557 69.3399 33.5801 69.3496 33.3002C69.3531 33.1922 69.3649 32.904 69.3649 32.868C69.3649 32.5203 69.3642 32.1324 69.3434 31.7639L69.3427 31.766Z" fill="#006838"/>
<path d="M11.6687 20.0182C11.614 21.4575 11.5593 22.9156 11.2496 24.355C11.1035 25.011 10.958 25.6669 10.7398 26.2862C10.3575 27.3065 9.55537 27.9257 8.48103 28.1086C7.80706 28.1993 7.16911 28.1993 6.51315 28.1266C5.69302 28.0172 5.05507 27.6528 4.58198 26.9608C3.79856 25.8858 3.28806 24.7013 3.08788 23.3527C2.86969 21.7679 2.76025 20.1823 2.74155 18.5788C2.72354 17.3943 2.72354 16.2466 2.70483 15.0808V14.0605C2.72284 13.7509 2.79557 13.6962 3.08719 13.6594L5.18252 13.6047C5.23725 13.6047 5.30998 13.5867 5.38271 13.6047C5.58358 13.6227 5.65631 13.7142 5.65631 13.9143V14.625C5.67432 17.0667 5.69302 19.5077 5.74775 21.9861C5.76575 22.5686 5.83849 23.1518 5.92992 23.7531C6.00334 24.2456 6.25824 24.7006 6.56787 25.1017C7.1698 25.8671 8.08067 25.7944 8.55376 24.9195C8.80867 24.4825 8.93612 24.0087 8.99153 23.4982C9.04625 23.1158 9.04625 22.7148 9.04625 22.3137C9.01023 21.1112 8.95551 19.9087 8.9001 18.743C8.86408 17.5585 8.79066 16.374 8.71793 15.1722C8.69992 14.8259 8.6445 14.4983 8.6445 14.1152C8.62649 13.8056 8.73594 13.7149 9.06357 13.6414C9.13699 13.6234 9.22773 13.6047 9.30046 13.6234C9.9024 13.7149 10.5397 13.6594 11.1589 13.5874C11.4865 13.5507 11.614 13.6601 11.614 14.0245C11.6507 15.0808 11.6687 16.0838 11.6874 17.1221H11.6694C11.6694 18.0877 11.6874 19.0533 11.6694 20.0189L11.6687 20.0182Z" fill="white"/>
<path d="M20.4886 26.7967C20.562 26.9241 20.6347 27.0703 20.7262 27.1977C20.8169 27.3439 20.7809 27.4887 20.6347 27.5621C20.1249 27.817 19.6692 28.1273 19.1226 28.2728C18.9405 28.3275 18.849 28.2548 18.7763 28.1273C18.2111 27.1617 17.6646 26.2135 17.118 25.2486L16.8084 24.6653C16.4261 24.7928 16.0977 24.9202 15.7147 25.0477C15.7327 25.2666 15.7694 25.4487 15.7694 25.6309C15.7694 26.3416 15.7874 27.0336 15.7874 27.7263C15.7694 28.1446 15.678 28.2 15.2776 28.1813C14.8766 28.1633 14.4575 28.1446 14.0751 28.1086C13.7288 28.0906 13.6374 28.0172 13.6194 27.6708C13.5833 27.0149 13.5466 26.3409 13.5466 25.6669C13.5466 24.0634 13.5646 22.4599 13.5646 20.8563C13.5646 19.6171 13.5466 18.3599 13.5279 17.1027C13.5099 16.1732 13.5099 15.2256 13.4912 14.2967C13.4912 14.2053 13.5279 14.1326 13.5092 14.0418C13.5092 13.8596 13.6007 13.7682 13.7641 13.7502C14.019 13.7142 14.2559 13.6408 14.5115 13.6408C15.3129 13.6227 16.0964 13.6588 16.8798 13.8776C17.1347 13.9504 17.3716 14.0418 17.6452 14.0965C18.3378 14.2967 18.8844 14.6978 19.3394 15.2623C19.9414 15.991 20.269 16.8291 20.5052 17.7407C20.7061 18.5788 20.6514 19.435 20.4325 20.2911C20.323 20.6922 20.1956 21.0745 20.0861 21.4756C19.9587 21.9854 19.6678 22.4412 19.3207 22.8602C19.0838 23.1886 18.8289 23.5162 18.5553 23.8625C19.1933 24.8468 19.8306 25.8304 20.4865 26.7967H20.4886ZM16.1892 22.7695C17.2822 22.3317 18.0289 21.567 18.3939 20.4373C18.5034 20.1456 18.5761 19.818 18.6121 19.4717C18.7216 18.3973 18.5387 17.4311 17.7013 16.6296C17.1 16.0831 16.3713 16.0471 15.5872 15.9737C15.7147 18.2699 15.5692 20.5474 15.8061 22.8429C15.9516 22.8069 16.079 22.8069 16.1885 22.7702L16.1892 22.7695Z" fill="white"/>
<path d="M29.1629 23.6443C29.5092 24.1541 29.6727 24.7381 29.6006 25.3753C29.5639 25.703 29.4005 25.9946 29.2363 26.2862C28.7445 27.0696 28.0518 27.5614 27.1777 27.7803C25.775 28.1446 24.3537 28.2541 22.8956 28.0899C22.7861 28.0719 22.6947 28.0352 22.586 27.9992C22.3491 27.9257 22.2396 27.7616 22.2396 27.5067C22.2576 26.7413 22.2396 25.9766 22.2396 25.2292C22.2216 24.2816 22.1849 23.3347 22.1489 22.3871C22.1122 21.0025 22.0574 19.6538 22.0027 18.2692C21.9847 17.5038 21.9293 16.7204 21.8933 15.973C21.8566 15.4084 21.8018 14.8432 21.7838 14.2967C21.7658 13.8589 21.8205 13.8049 22.2216 13.7502C22.4038 13.7142 22.6227 13.7142 22.8228 13.7142C23.7337 13.7502 24.6266 13.7869 25.5201 13.9871C27.47 14.4429 28.9634 16.0097 29.291 18.0503C29.5826 19.7633 29.0181 21.1846 27.9244 22.4599C27.9064 22.4966 27.8877 22.5146 27.8336 22.5693C28.3802 22.8609 28.8172 23.1712 29.1636 23.6443H29.1629ZM24.0981 22.4966C24.6993 22.4786 25.2638 22.2964 25.6649 22.0048C25.9385 21.8039 26.2114 21.5857 26.4483 21.3308C27.3959 20.3832 27.5233 19.2535 27.1223 18.051C26.9041 17.395 26.4303 16.958 25.7743 16.6844C25.1724 16.4475 24.5899 16.338 23.8792 16.356L24.0981 22.4966ZM24.2615 26.4864C24.353 26.4864 24.4077 26.5044 24.4804 26.5044C25.0997 26.5224 25.7009 26.3769 26.2841 26.158C26.6485 26.0119 26.9401 25.7757 27.1583 25.4474C27.4319 25.0283 27.3405 24.6279 26.8847 24.409C26.6845 24.3183 26.4656 24.2456 26.2467 24.2269C25.5541 24.1174 24.8801 24.2449 24.2061 24.4638C24.1147 25.3933 24.1514 26.1767 24.2608 26.4864H24.2615Z" fill="white"/>
<path d="M33.4097 25.2479C33.2822 25.9399 33.1548 26.6145 33.0454 27.2705C33.0273 27.4166 33.0086 27.5621 32.9719 27.7263C32.9539 27.9084 32.8625 27.9812 32.6443 27.9812H30.986C30.6944 27.9812 30.585 27.9077 30.621 27.6168C30.6757 27.0703 30.7485 26.5231 30.8032 25.9586C31.0768 23.8632 31.4411 21.7679 31.8602 19.6545C32.1518 18.0877 32.4981 16.5389 32.8258 14.9721C32.8805 14.6624 32.9352 14.3708 32.9719 14.0979C33.0086 13.9338 33.0814 13.861 33.2455 13.843C33.373 13.825 33.5191 13.7883 33.6466 13.7883C34.6122 13.7703 35.5598 13.7336 36.5253 13.7156C36.9077 13.6976 36.8897 13.7156 36.9804 14.0979C37.1446 14.8446 37.3448 15.5733 37.4902 16.3027C37.7091 17.1956 37.8366 18.1064 38.0922 18.9993C38.3831 20.0016 38.566 21.0219 38.7661 22.0422L39.7864 27.2712C39.8772 27.7269 39.7864 27.9091 39.3127 28.0006C38.9483 28.0733 38.566 28.0913 38.2016 28.146C37.9834 28.164 37.7458 28.2007 37.5276 28.2007C37.218 28.2007 37.0899 28.128 37.0358 27.7997C36.9451 27.3986 36.8897 26.9615 36.8177 26.5792C36.7082 26.0687 36.5801 25.5769 36.4526 25.0297L33.4097 25.2486V25.2479ZM34.8491 16.1371C34.5942 16.7751 33.6833 22.6787 33.774 23.2433C34.4847 23.3347 35.1954 23.3347 35.9421 23.1338C35.6872 20.7649 35.487 18.4694 34.8491 16.1371Z" fill="white"/>
<path d="M43.7964 23.0971C43.8144 24.0814 43.8511 25.047 43.8878 25.9946C43.9058 26.5231 43.9605 27.0696 43.9605 27.5614C43.9972 27.9805 43.9238 28.0532 43.5415 28.0712C43.0677 28.0712 42.6306 28.0712 42.1568 28.0532C41.9746 28.0352 41.8105 27.9805 41.6103 27.9437C41.3921 27.889 41.264 27.7796 41.246 27.5427C41.2279 26.796 41.1552 26.0666 41.1552 25.3379C41.1372 23.6616 41.1732 22.0034 41.1552 20.3458C41.1372 18.6328 41.1005 16.9018 41.0818 15.1528C41.0818 14.7518 41.0818 14.4055 41.0998 14.0231C41.0998 13.7315 41.2092 13.6588 41.5189 13.6588C42.1021 13.6588 42.7033 13.6768 43.2859 13.6955C43.45 13.6955 43.5775 13.7502 43.6322 13.9143C43.7957 14.2787 43.9785 14.5703 44.106 14.9347C44.5438 16.0644 44.9261 17.1942 45.3632 18.3052C45.7823 19.471 46.2928 20.6374 46.894 21.7312C46.9667 21.8406 47.0395 21.9494 47.1309 22.1135C47.1309 21.8039 47.1669 21.5483 47.1489 21.2754C47.1489 20.7109 47.1489 20.1096 47.1122 19.5631C47.0215 17.9963 46.9113 16.3927 46.8206 14.8072C46.8026 14.5703 46.7478 14.3701 46.7478 14.1332C46.7659 13.8236 46.8386 13.7509 47.1302 13.7689C47.7682 13.8049 48.3687 13.8596 49.0247 13.915C49.1521 13.9511 49.2796 13.9698 49.407 13.9878C49.7534 14.0605 49.8448 14.1152 49.8808 14.4255C49.9542 14.9721 50.027 15.5186 50.027 16.0658C50.027 17.4504 49.9909 18.8351 49.9362 20.2197C49.9182 21.2401 49.8268 22.2604 49.8268 23.2807C49.8088 24.5746 49.8815 25.8678 49.9175 27.1984C49.9175 27.3806 49.9355 27.5628 49.9175 27.763C49.9175 27.9271 49.8448 28.0005 49.6439 28.0005C48.8605 28.0185 48.0771 28.0005 47.2937 28.0005C46.966 27.9825 46.7291 27.8364 46.6017 27.508C46.1279 26.4697 45.5814 25.4494 45.0716 24.4104C44.8527 23.9186 44.6892 23.4448 44.4884 22.935C44.3062 22.534 44.0873 22.1149 43.8691 21.7325C43.8571 21.7446 43.8449 21.7506 43.8324 21.7506C43.8324 22.1876 43.7957 22.6614 43.7957 23.0985L43.7964 23.0971Z" fill="white"/>
<path d="M8.29825 40.3218V39.2648C8.28024 38.1904 8.28024 37.06 8.22552 35.9857C8.1708 34.7465 8.06136 33.526 7.98794 32.3415L7.91521 31.7223C7.87849 31.4487 7.98794 31.3032 8.24284 31.3032C8.68061 31.2852 9.11769 31.2852 9.53675 31.3032L10.4476 31.3579C10.8127 31.3946 10.9214 31.5041 10.9401 31.8677L11.1036 36.4047C11.177 38.4821 11.2497 40.5587 11.3225 42.636C11.3585 43.5656 11.4132 44.4584 11.4319 45.406C11.4686 45.6976 11.3045 45.8251 10.9941 45.8438H8.75265C8.51575 45.8438 8.46172 45.7891 8.42501 45.5342C8.407 45.4067 8.407 45.2793 8.407 45.1518C8.407 44.3317 8.38899 43.5483 8.38899 42.7462C8.38899 42.6554 8.37098 42.5827 8.37098 42.4913C7.36869 42.4552 6.42111 42.4365 5.38279 42.4005C5.38279 42.5467 5.36478 42.6554 5.36478 42.7829C5.38279 43.585 5.41951 44.3497 5.43752 45.1698C5.43752 45.2973 5.45553 45.4247 5.45553 45.5522C5.43752 45.7524 5.3821 45.8071 5.16391 45.7891C4.74484 45.7711 4.32578 45.7343 3.87 45.7343C3.66982 45.7163 3.45093 45.7343 3.25075 45.7524C2.86839 45.7891 2.75895 45.6616 2.77696 45.2786C2.79497 44.8048 2.75895 44.3677 2.72224 43.9119C2.6128 42.2357 2.46734 40.5774 2.44863 38.8831C2.44863 37.7901 2.33919 36.6603 2.30248 35.5306C2.24776 34.3281 2.22975 33.0889 2.15633 31.8504C2.12031 31.5768 2.24776 31.3766 2.64882 31.3406C3.28677 31.3039 3.90602 31.2859 4.57999 31.2859C4.94433 31.2859 5.07178 31.4133 5.08979 31.7957L5.30799 36.5149C5.36271 37.7354 5.41743 38.9198 5.47215 40.1583C5.47215 40.195 5.49016 40.2318 5.50886 40.3405C6.45574 40.3225 7.3486 40.4132 8.29618 40.3225L8.29825 40.3218Z" fill="white"/>
<path d="M15.4784 42.9644C15.351 43.6563 15.2235 44.331 15.1141 44.987C15.0961 45.1331 15.0774 45.2786 15.0407 45.4427C15.0226 45.6249 14.9312 45.6976 14.713 45.6976H13.0548C12.7632 45.6976 12.6537 45.6242 12.6897 45.3333C12.7444 44.7868 12.8172 44.2396 12.8719 43.675C13.1455 41.5797 13.5099 39.4844 13.9289 37.371C14.2205 35.8042 14.5669 34.2554 14.8945 32.6886C14.9492 32.3789 15.0039 32.0873 15.0407 31.8144C15.0774 31.6502 15.1501 31.5775 15.3143 31.5595C15.4417 31.5415 15.5879 31.5048 15.7153 31.5048C16.6809 31.4868 17.6285 31.4501 18.5941 31.4321C18.9764 31.414 18.9584 31.4321 19.0492 31.8144C19.2133 32.5611 19.4135 33.2898 19.559 34.0192C19.7778 34.912 19.9053 35.8229 20.1609 36.7158C20.4518 37.7181 20.6347 38.7384 20.8349 39.7587L21.8552 44.9877C21.9459 45.4434 21.8552 45.6256 21.3814 45.717C21.017 45.7898 20.6347 45.8078 20.2703 45.8625C20.0521 45.8805 19.8146 45.9172 19.5964 45.9172C19.2867 45.9172 19.1586 45.8445 19.1046 45.5162C19.0138 45.1151 18.9584 44.678 18.8864 44.2957C18.7769 43.7852 18.6488 43.2934 18.5213 42.7462L15.4784 42.9651V42.9644ZM16.9178 33.8536C16.6629 34.4916 15.752 40.3952 15.8428 40.9598C16.5535 41.0512 17.2641 41.0512 18.0108 40.8503C17.7559 38.4814 17.5558 36.1859 16.9178 33.8536Z" fill="white"/>
<path d="M30.1472 44.5132C30.2206 44.6406 30.2933 44.7868 30.3847 44.9142C30.4755 45.0604 30.4395 45.2051 30.2933 45.2786C29.7835 45.5335 29.3277 45.8438 28.7812 45.9892C28.599 46.044 28.5076 45.9712 28.4349 45.8438C27.8697 44.8782 27.3231 43.9299 26.7766 42.965L26.467 42.3818C26.0846 42.5093 25.7563 42.6367 25.3733 42.7642C25.3913 42.983 25.428 43.1652 25.428 43.3474C25.428 44.0581 25.446 44.75 25.446 45.4427C25.428 45.8611 25.3365 45.9165 24.9362 45.8978C24.5351 45.8798 24.1161 45.8611 23.7337 45.8251C23.3874 45.8071 23.2959 45.7336 23.2779 45.3873C23.2419 44.7313 23.2052 44.0574 23.2052 43.3834C23.2052 41.7799 23.2232 40.1763 23.2232 38.5728C23.2232 37.3336 23.2052 36.0764 23.1865 34.8192C23.1685 33.8896 23.1685 32.9421 23.1498 32.0132C23.1498 31.9224 23.1865 31.8497 23.1678 31.7583C23.1678 31.5761 23.2592 31.4847 23.4227 31.4674C23.6776 31.4306 23.9145 31.3579 24.1701 31.3579C24.9715 31.3399 25.7549 31.3759 26.5383 31.5955C26.7932 31.6682 27.0301 31.759 27.3037 31.8137C27.9964 32.0139 28.5429 32.4149 28.998 32.9795C29.5999 33.7082 29.9276 34.5463 30.1638 35.4578C30.3647 36.296 30.3099 37.1521 30.0911 38.0083C29.9816 38.4093 29.8542 38.7917 29.7447 39.1927C29.6173 39.7025 29.3263 40.1583 28.9793 40.5774C28.7424 40.9057 28.4875 41.2334 28.2139 41.5797C28.8519 42.564 29.4891 43.5476 30.1451 44.5138L30.1472 44.5132ZM25.847 40.486C26.9401 40.0482 27.6868 39.2835 28.0518 38.1537C28.1613 37.8621 28.234 37.5345 28.27 37.1881C28.3795 36.1138 28.1966 35.1475 27.3592 34.3461C26.7579 33.7996 26.0292 33.7636 25.2451 33.6901C25.3726 35.9864 25.2271 38.2639 25.464 40.5594C25.6095 40.5234 25.7369 40.5234 25.8464 40.4866L25.847 40.486Z" fill="white"/>
<path d="M36.8537 38.5735C37.1086 36.7331 37.4916 34.9113 37.928 33.1069C38.0374 32.6331 38.1289 32.1961 38.2196 31.7223C38.293 31.394 38.3104 31.3572 38.6207 31.3572C39.1859 31.3392 39.7144 31.3392 40.2242 31.3392C40.4424 31.3392 40.5151 31.43 40.5151 31.6489C40.5331 31.7763 40.5151 31.9038 40.4791 32.0499C40.0413 34.3094 39.5863 36.5682 39.1672 38.8097C38.7114 41.0512 38.2563 43.292 37.8373 45.5328C37.7645 45.8604 37.7465 45.8791 37.4362 45.8604H36.0515C35.7599 45.8604 35.7599 45.8424 35.6872 45.5695C35.4863 44.9863 35.2494 44.4397 35.0853 43.8752C34.8671 43.1645 34.6662 42.4539 34.484 41.7612C34.1924 40.5954 33.8648 39.447 33.5912 38.3179C33.1721 36.7691 32.8258 35.2563 32.4434 33.7082C32.334 33.2531 32.2245 32.8153 32.0784 32.3415C32.0604 32.2321 32.0237 32.1046 32.0056 31.9772C31.9689 31.5394 31.9689 31.4487 32.4247 31.4674C32.8438 31.4674 33.2441 31.4307 33.6819 31.4494C34.1377 31.4674 34.2104 31.5401 34.3199 31.9592L36.0141 38.1905C36.1603 38.7917 36.3425 39.3929 36.4879 40.0129C36.5246 40.0129 36.5427 40.0129 36.5974 40.0309C36.6701 39.5391 36.7796 39.0473 36.8523 38.5735H36.8537Z" fill="white"/>
<path d="M46.639 39.6478C47.3316 39.6298 48.0056 39.6298 48.6796 39.6118C48.9345 39.6118 48.9892 39.6665 49.0806 39.9394C49.1173 40.1763 49.1541 40.4132 49.1721 40.6501C49.1901 41.0872 49.1901 41.5242 49.1721 41.962C49.1541 42.3991 49.0806 42.4538 48.6255 42.4718C47.6052 42.5078 46.5842 42.5265 45.5826 42.5446C45.4919 42.5626 45.3825 42.5446 45.2183 42.5446C45.2363 42.8182 45.255 43.0183 45.291 43.2913H45.6741C46.6577 43.1451 47.678 43.2365 48.6616 43.2552C49.0446 43.2732 49.409 43.2552 49.7913 43.2732C50.0822 43.2913 50.119 43.328 50.1377 43.6196L50.1924 45.3686C50.1924 45.6782 50.1557 45.7329 49.864 45.7329C49.0619 45.7696 48.2612 45.8064 47.4778 45.8244C46.1292 45.8424 44.7805 45.8604 43.4326 45.8604C43.3231 45.8784 43.1957 45.8604 43.0862 45.8424C42.7953 45.7877 42.6312 45.6048 42.6312 45.3139C42.5404 44.0387 42.449 42.7808 42.413 41.5055C42.3582 40.1029 42.3395 38.6815 42.3215 37.2789V31.7576C42.3395 31.5394 42.3763 31.4666 42.5764 31.4479C42.8313 31.4299 43.1049 31.4299 43.3598 31.4299C44.8359 31.3752 46.33 31.3025 47.8241 31.2658C48.3526 31.2478 48.8992 31.2838 49.4637 31.3025C49.7373 31.3205 49.828 31.4119 49.846 31.6488C49.8827 32.2501 49.9375 32.8333 49.846 33.3985C49.846 33.5079 49.828 33.5987 49.81 33.6894C49.7733 33.8536 49.7006 33.9443 49.5184 33.981C49.2635 33.9991 49.0086 34.0358 48.7717 34.0358C47.8061 34.0718 46.8405 34.0905 45.893 34.1265C45.5646 34.1265 45.237 34.1812 44.8726 34.2172C44.9274 35.1281 44.9821 36.0577 45.0001 36.9685C45.0361 37.8794 45.0181 38.791 45.0361 39.7385C45.6013 39.7018 46.1298 39.6651 46.6397 39.6471L46.639 39.6478Z" fill="white"/>
<path d="M58.465 37.3336C58.4103 37.6979 58.3743 37.7347 57.9912 37.7347C57.6082 37.7347 57.2805 37.7347 56.9342 37.7167C56.5518 37.6806 56.4964 37.6259 56.5331 37.2616C56.5879 36.6963 56.6426 36.1498 56.6793 35.6033C56.6973 35.1475 56.6426 34.6924 56.4791 34.2547C56.2415 33.5807 55.7497 33.3251 55.0397 33.4526C54.5299 33.526 54.0374 34.0905 54.0194 34.6183C53.9647 35.4565 54.2376 36.1484 54.8029 36.7684C55.6223 37.6245 56.4057 38.4807 57.1351 39.3915C57.7363 40.1022 58.1554 40.9584 58.3008 41.9059C58.4463 42.7621 58.3008 43.5642 57.7903 44.2749C57.426 44.8034 56.9522 45.2405 56.369 45.5321C55.6403 45.9331 54.8936 45.9698 54.1102 45.7503C53.3808 45.5134 52.6708 45.2218 52.197 44.5658C51.7592 44.0013 51.5043 43.3453 51.3222 42.6713C51.1947 42.1975 51.1767 41.7058 51.2314 41.232C51.2494 40.9403 51.3409 40.8496 51.6138 40.8309C52.0516 40.8129 52.4879 40.7949 52.9257 40.7949C53.3268 40.7949 53.3995 40.8676 53.4722 41.2687C53.563 41.6697 53.6544 42.0708 53.7819 42.4892C53.8733 42.8355 54.0555 43.1451 54.3838 43.346C54.7114 43.5642 55.0758 43.5462 55.3861 43.364C55.6957 43.1818 55.8599 42.8902 55.8419 42.5072C55.8238 42.2703 55.7871 41.9974 55.7137 41.7605C55.4408 41.0318 55.0584 40.3938 54.4932 39.866C53.9647 39.3562 53.4182 38.8637 52.8717 38.3359C51.8514 37.3336 51.4503 36.0944 51.6692 34.6737C51.7239 34.3821 51.7967 34.0718 51.8694 33.7996C52.0703 33.1616 52.4159 32.6338 52.9811 32.2688C53.3635 32.0139 53.7465 31.7223 54.1649 31.5581C54.967 31.1938 55.8232 31.1938 56.6066 31.5761C57.7723 32.0859 58.429 33.0335 58.5738 34.3094C58.6285 34.7278 58.6285 35.1835 58.6472 35.5479C58.5738 36.1858 58.5377 36.7504 58.465 37.3336Z" fill="white"/>
<path d="M64.7525 37.1334C64.7705 38.5361 64.7525 39.9755 64.7705 41.3788C64.7885 42.5086 64.8432 43.6203 64.8979 44.7681V45.2779C64.8979 45.6242 64.8072 45.7157 64.4421 45.7517C64.2967 45.7697 64.1145 45.7884 63.9323 45.7884C63.55 45.7884 63.1669 45.7704 62.7666 45.7517C62.3295 45.7157 62.22 45.6055 62.22 45.1691C62.1833 43.5836 62.1653 41.9801 62.1286 40.3952L62.0192 37.2429C62.0012 36.8605 61.9644 36.4595 61.9284 36.0771C61.8917 35.4939 61.8377 34.9113 61.7823 34.2914C61.6728 34.2914 61.5454 34.2734 61.4359 34.2914C60.8527 34.3094 60.2875 34.3461 59.723 34.3821C59.6682 34.3821 59.6135 34.4002 59.5408 34.4002C59.1584 34.4002 59.067 34.3267 59.031 33.9444C58.9943 33.3431 58.9402 32.7239 58.9215 32.1046C58.9035 31.7036 59.0123 31.5761 59.4313 31.5581C60.0873 31.5034 60.78 31.4674 61.4359 31.4674C62.8206 31.4307 64.2232 31.4307 65.6079 31.4307C66.009 31.4307 66.3913 31.4487 66.8104 31.4674C67.1387 31.4854 67.1747 31.5581 67.1927 31.8857C67.2107 32.2141 67.2107 32.5597 67.2107 32.87C67.1927 33.2344 67.1927 33.5987 67.156 33.9444C67.138 34.254 67.1013 34.2727 66.8097 34.2907C66.2272 34.3087 65.6252 34.3087 65.0607 34.3267H64.6596C64.6776 35.311 64.7324 36.2219 64.7504 37.1327L64.7525 37.1334Z" fill="white"/>
</g>
<defs>
<clipPath id="clip0_513_5746">
<rect width="82.4142" height="60" fill="white"/>
</clipPath>
</defs>
</svg>
